<svg width="13" height="13" viewBox="0 0 13 13" fill="none" xmlns="http://www.w3.org/2000/svg">
<g clip-path="url(#clip0_823_148)">
<path d="M9.45866 5.64014C7.65311 5.64014 6.18408 7.10804 6.18408 8.91222C6.18408 10.7164 7.65311 12.1843 9.45866 12.1843C11.2642 12.1843 12.7332 10.7164 12.7332 8.91222C12.7332 7.10804 11.2642 5.64014 9.45866 5.64014ZM9.39569 8.53467H9.52164C10.0425 8.53467 10.4662 8.95803 10.4662 9.47855C10.4662 9.88781 10.2022 10.2341 9.8365 10.3645V10.5483C9.8365 10.7567 9.66723 10.9258 9.45866 10.9258C9.2501 10.9258 9.08083 10.7567 9.08083 10.5483V10.4224H8.82894C8.62037 10.4224 8.4511 10.2533 8.4511 10.0449C8.4511 9.83646 8.62037 9.66732 8.82894 9.66732H9.52164C9.62592 9.66732 9.71056 9.58275 9.71056 9.47855C9.71056 9.37434 9.62592 9.28977 9.52164 9.28977H9.39569C8.87478 9.28977 8.4511 8.86641 8.4511 8.3459C8.4511 7.93664 8.71508 7.5903 9.08083 7.45992V7.27618C9.08083 7.06777 9.2501 6.89863 9.45866 6.89863C9.66723 6.89863 9.8365 7.06777 9.8365 7.27618V7.40203H10.0884C10.297 7.40203 10.4662 7.57117 10.4662 7.77958C10.4662 7.98798 10.297 8.15713 10.0884 8.15713H9.39569C9.29141 8.15713 9.20677 8.2417 9.20677 8.3459C9.20677 8.4501 9.29141 8.53467 9.39569 8.53467Z" fill="#753FF6"/>
<path d="M9.20685 3.10166V1.10922C9.20685 0.830843 8.98116 0.605825 8.70307 0.605825C8.42498 0.605825 8.19929 0.830843 8.19929 1.10922V2.11702L6.28442 0.245896C6.08845 0.0541023 5.7756 0.0541023 5.58013 0.245896L0.863738 4.85298C0.723183 4.99494 0.642578 5.18975 0.642578 5.38809C0.642578 5.8044 0.981622 6.14318 1.39825 6.14318H2.15392V8.91187C2.15392 9.60605 2.71916 10.1704 3.41337 10.1704H4.67282C4.95091 10.1704 5.1766 9.94534 5.1766 9.66696C5.1766 9.38858 4.95091 9.16356 4.67282 9.16356H3.41337C3.27433 9.16356 3.16148 9.0503 3.16148 8.91187V5.63979C3.16148 5.36141 2.93579 5.13639 2.6577 5.13639H2.01437L5.93228 1.30957L9.23254 4.53433C9.43204 4.72914 9.75043 4.72562 9.94489 4.52628C10.1393 4.32743 10.1358 4.00878 9.93683 3.81447L9.20685 3.10166Z" fill="#753FF6"/>
</g>
<defs>
<clipPath id="clip0_823_148">
<rect width="12.0907" height="12.0815" fill="white" transform="translate(0.642578 0.103027)"/>
</clipPath>
</defs>
</svg>
