<svg width="34" height="34" viewBox="0 0 34 34" fill="none" xmlns="http://www.w3.org/2000/svg">
<path d="M17.0002 8.45837C15.3108 8.45837 13.6593 8.95934 12.2547 9.89791C10.85 10.8365 9.75519 12.1705 9.10869 13.7313C8.46219 15.2921 8.29304 17.0095 8.62262 18.6664C8.9522 20.3234 9.76572 21.8453 10.9603 23.0399C12.1549 24.2345 13.6768 25.048 15.3338 25.3776C16.9907 25.7072 18.7081 25.538 20.2689 24.8915C21.8297 24.245 23.1637 23.1502 24.1023 21.7455C25.0409 20.3409 25.5418 18.6894 25.5418 17C25.5446 15.8776 25.3255 14.7656 24.8972 13.728C24.4689 12.6905 23.8399 11.7478 23.0462 10.954C22.2524 10.1603 21.3097 9.53126 20.2722 9.10297C19.2346 8.67469 18.1226 8.45563 17.0002 8.45837ZM17.0002 22.5625C15.9 22.5625 14.8246 22.2363 13.9098 21.6251C12.9951 21.0139 12.2821 20.1451 11.8611 19.1287C11.4401 18.1123 11.3299 16.9939 11.5445 15.9149C11.7592 14.8358 12.289 13.8447 13.0669 13.0668C13.8448 12.2888 14.836 11.7591 15.915 11.5444C16.994 11.3298 18.1124 11.4399 19.1288 11.861C20.1453 12.282 21.014 12.9949 21.6252 13.9097C22.2364 14.8244 22.5627 15.8999 22.5627 17C22.5627 18.4753 21.9766 19.8902 20.9334 20.9333C19.8903 21.9765 18.4754 22.5625 17.0002 22.5625ZM27.896 8.10421C27.896 8.51625 27.7738 8.91904 27.5449 9.26165C27.316 9.60425 26.9906 9.87127 26.6099 10.029C26.2292 10.1866 25.8104 10.2279 25.4062 10.1475C25.0021 10.0671 24.6309 9.86871 24.3395 9.57735C24.0482 9.28599 23.8497 8.91477 23.7694 8.51065C23.689 8.10652 23.7302 7.68763 23.8879 7.30695C24.0456 6.92627 24.3126 6.6009 24.6552 6.37198C24.9978 6.14306 25.4006 6.02087 25.8127 6.02087C26.3652 6.02087 26.8951 6.24037 27.2858 6.63107C27.6765 7.02177 27.896 7.55167 27.896 8.10421ZM33.5418 10.1875C33.6024 7.5976 32.6363 5.08878 30.8543 3.20837C28.984 1.40356 26.4739 0.414534 23.8752 0.458374C21.1668 0.333374 12.8335 0.333374 10.1252 0.458374C7.53601 0.40231 5.02885 1.36775 3.146 3.14587C1.36398 5.02628 0.3979 7.5351 0.458496 10.125C0.333496 12.8334 0.333496 21.1667 0.458496 23.875C0.3979 26.465 1.36398 28.9738 3.146 30.8542C5.02885 32.6323 7.53601 33.5978 10.1252 33.5417C12.8752 33.7084 21.1252 33.7084 23.8752 33.5417C26.4651 33.6023 28.9739 32.6362 30.8543 30.8542C32.6363 28.9738 33.6024 26.465 33.5418 23.875C33.6668 21.1667 33.6668 12.8334 33.5418 10.125V10.1875ZM30.0002 26.8542C29.7173 27.5707 29.2903 28.2215 28.7456 28.7663C28.2008 29.311 27.55 29.738 26.8335 30.0209C23.5993 30.6747 20.293 30.8989 17.0002 30.6875C13.7142 30.8993 10.4148 30.6751 7.18766 30.0209C6.47112 29.738 5.82032 29.311 5.2756 28.7663C4.73088 28.2215 4.30386 27.5707 4.021 26.8542C3.146 24.6459 3.3335 19.4375 3.3335 17.0209C3.3335 14.6042 3.146 9.37504 4.021 7.18754C4.29588 6.46393 4.71985 5.80621 5.2654 5.25707C5.81095 4.70794 6.46587 4.27966 7.18766 4.00004C10.4148 3.34583 13.7142 3.12166 17.0002 3.33337C20.293 3.12201 23.5993 3.34617 26.8335 4.00004C27.55 4.2829 28.2008 4.70993 28.7456 5.25465C29.2903 5.79937 29.7173 6.45017 30.0002 7.16671C30.8752 9.37504 30.6668 14.5834 30.6668 17C30.6668 19.4167 30.8752 24.6459 30.0002 26.8334V26.8542Z" fill="white"/>
</svg>
