<svg width="16" height="16" viewBox="0 0 16 16" fill="none" xmlns="http://www.w3.org/2000/svg">
<g clip-path="url(#clip0_899_145)">
<path d="M12.5805 12.6359C12.5805 12.8002 12.5152 12.9578 12.3989 13.074C12.2826 13.1902 12.1249 13.2555 11.9605 13.2555H3.27996C3.11551 13.2555 2.9578 13.1902 2.84152 13.074C2.72524 12.9578 2.65992 12.8002 2.65992 12.6359V7.05982H0.799805L7.20293 1.24334C7.31709 1.13955 7.46588 1.08203 7.62022 1.08203C7.77456 1.08203 7.92335 1.13955 8.03751 1.24334L14.4406 7.05982H12.5805V12.6359ZM7.62022 10.7772L9.70293 8.69609C9.83247 8.56664 9.93524 8.41296 10.0053 8.24383C10.0755 8.0747 10.1115 7.89343 10.1115 7.71036C10.1115 7.52729 10.0755 7.34602 10.0053 7.17689C9.93524 7.00776 9.83247 6.85408 9.70293 6.72463C9.57338 6.59518 9.41959 6.4925 9.25033 6.42244C9.08107 6.35239 8.89965 6.31633 8.71645 6.31633C8.53324 6.31633 8.35183 6.35239 8.18257 6.42244C8.01331 6.4925 7.85951 6.59518 7.72997 6.72463L7.62022 6.8343L7.51047 6.72463C7.38093 6.59518 7.22713 6.4925 7.05787 6.42244C6.88861 6.35239 6.7072 6.31633 6.52399 6.31633C6.34079 6.31633 6.15938 6.35239 5.99011 6.42244C5.82085 6.4925 5.66706 6.59518 5.53751 6.72463C5.40797 6.85408 5.30521 7.00776 5.2351 7.17689C5.16499 7.34602 5.1289 7.52729 5.1289 7.71036C5.1289 7.89343 5.16499 8.0747 5.2351 8.24383C5.30521 8.41296 5.40797 8.56664 5.53751 8.69609L7.62022 10.7772Z" fill="#753FF6"/>
</g>
<defs>
<clipPath id="clip0_899_145">
<rect width="14.8809" height="14.8696" fill="white" transform="translate(0.179688 0.244629)"/>
</clipPath>
</defs>
</svg>
