<svg width="161" height="30" viewBox="0 0 161 30" fill="none" xmlns="http://www.w3.org/2000/svg">
<path d="M16.7047 7.92C16.1548 6.76326 15.3584 5.872 14.3154 5.24622C13.2724 4.60148 12.0588 4.27911 10.6745 4.27911C9.29021 4.27911 8.03865 4.60148 6.91984 5.24622C5.81998 5.872 4.94769 6.78222 4.30295 7.97689C3.67717 9.15259 3.36428 10.5179 3.36428 12.0729C3.36428 13.6279 3.67717 14.9932 4.30295 16.1689C4.94769 17.3446 5.81998 18.2548 6.91984 18.8996C8.03865 19.5253 9.29021 19.8382 10.6745 19.8382C12.6087 19.8382 14.2016 19.2599 15.4532 18.1031C16.7047 16.9464 17.4348 15.3819 17.6434 13.4098H9.73584V11.3049H20.4025V13.296C20.2508 14.9268 19.7388 16.4249 18.8665 17.7902C17.9942 19.1366 16.8469 20.208 15.4247 21.0044C14.0025 21.7819 12.4191 22.1707 10.6745 22.1707C8.83509 22.1707 7.15687 21.744 5.63983 20.8907C4.1228 20.0184 2.91865 18.8142 2.02739 17.2782C1.15509 15.7422 0.718946 14.0071 0.718946 12.0729C0.718946 10.1387 1.15509 8.40355 2.02739 6.86755C2.91865 5.31259 4.1228 4.10844 5.63983 3.25511C7.15687 2.38281 8.83509 1.94666 10.6745 1.94666C12.7794 1.94666 14.6378 2.46815 16.2496 3.51111C17.8804 4.55407 19.0656 6.0237 19.8052 7.92H16.7047ZM30.1965 22.256C28.7364 22.256 27.4089 21.9241 26.2143 21.2604C25.0386 20.5967 24.1094 19.6581 23.4267 18.4444C22.763 17.2119 22.4312 15.7896 22.4312 14.1778C22.4312 12.5849 22.7725 11.1816 23.4552 9.968C24.1568 8.73541 25.1049 7.79674 26.2996 7.152C27.4943 6.48829 28.8312 6.15644 30.3103 6.15644C31.7894 6.15644 33.1263 6.48829 34.3209 7.152C35.5156 7.79674 36.4543 8.72592 37.1369 9.93955C37.8386 11.1532 38.1894 12.5659 38.1894 14.1778C38.1894 15.7896 37.8291 17.2119 37.1085 18.4444C36.4069 19.6581 35.4492 20.5967 34.2356 21.2604C33.022 21.9241 31.6756 22.256 30.1965 22.256ZM30.1965 19.9804C31.1257 19.9804 31.998 19.7624 32.8134 19.3262C33.6288 18.8901 34.283 18.2359 34.7761 17.3636C35.2881 16.4913 35.5441 15.4293 35.5441 14.1778C35.5441 12.9262 35.2975 11.8643 34.8045 10.992C34.3115 10.1197 33.6667 9.47496 32.8703 9.05778C32.0738 8.62163 31.211 8.40355 30.2818 8.40355C29.3337 8.40355 28.4614 8.62163 27.6649 9.05778C26.8875 9.47496 26.2617 10.1197 25.7876 10.992C25.3135 11.8643 25.0765 12.9262 25.0765 14.1778C25.0765 15.4483 25.3041 16.5197 25.7592 17.392C26.2332 18.2643 26.859 18.9185 27.6365 19.3547C28.414 19.7719 29.2673 19.9804 30.1965 19.9804ZM43.7545 0.951109V22H41.1661V0.951109H43.7545ZM46.7723 14.1493C46.7723 12.5564 47.0947 11.1627 47.7394 9.968C48.3841 8.75437 49.2659 7.8157 50.3847 7.152C51.5225 6.48829 52.793 6.15644 54.1963 6.15644C55.4099 6.15644 56.5382 6.44089 57.5812 7.00978C58.6241 7.5597 59.4206 8.28978 59.9705 9.2V0.951109H62.5874V22H59.9705V19.0702C59.4585 19.9994 58.7 20.7674 57.695 21.3742C56.6899 21.9621 55.5142 22.256 54.1678 22.256C52.7835 22.256 51.5225 21.9147 50.3847 21.232C49.2659 20.5493 48.3841 19.5917 47.7394 18.3591C47.0947 17.1265 46.7723 15.7233 46.7723 14.1493ZM59.9705 14.1778C59.9705 13.0021 59.7335 11.9781 59.2594 11.1058C58.7853 10.2335 58.1406 9.56978 57.3252 9.11467C56.5287 8.64059 55.647 8.40355 54.6798 8.40355C53.7127 8.40355 52.831 8.63111 52.0345 9.08622C51.2381 9.54133 50.6028 10.205 50.1287 11.0773C49.6547 11.9496 49.4176 12.9736 49.4176 14.1493C49.4176 15.344 49.6547 16.387 50.1287 17.2782C50.6028 18.1505 51.2381 18.8237 52.0345 19.2978C52.831 19.7529 53.7127 19.9804 54.6798 19.9804C55.647 19.9804 56.5287 19.7529 57.3252 19.2978C58.1406 18.8237 58.7853 18.1505 59.2594 17.2782C59.7335 16.387 59.9705 15.3535 59.9705 14.1778ZM80.7572 13.6089C80.7572 14.1019 80.7287 14.6234 80.6718 15.1733H68.2132C68.308 16.7093 68.8295 17.9135 69.7776 18.7858C70.7447 19.6391 71.9109 20.0658 73.2763 20.0658C74.3951 20.0658 75.3243 19.8098 76.0638 19.2978C76.8224 18.7668 77.3533 18.0652 77.6567 17.1929H80.4443C80.0271 18.691 79.1927 19.9141 77.9412 20.8622C76.6896 21.7914 75.1347 22.256 73.2763 22.256C71.7972 22.256 70.4698 21.9241 69.2941 21.2604C68.1373 20.5967 67.2271 19.6581 66.5634 18.4444C65.8997 17.2119 65.5678 15.7896 65.5678 14.1778C65.5678 12.5659 65.8902 11.1532 66.5349 9.93955C67.1797 8.72592 68.0804 7.79674 69.2372 7.152C70.4129 6.48829 71.7592 6.15644 73.2763 6.15644C74.7554 6.15644 76.0638 6.47881 77.2016 7.12355C78.3394 7.76829 79.2117 8.65955 79.8185 9.79733C80.4443 10.9161 80.7572 12.1867 80.7572 13.6089ZM78.0834 13.0684C78.0834 12.0824 77.8653 11.2385 77.4292 10.5369C76.993 9.81629 76.3957 9.27585 75.6372 8.91555C74.8976 8.53629 74.0727 8.34667 73.1625 8.34667C71.8541 8.34667 70.7352 8.76385 69.8061 9.59822C68.8958 10.4326 68.3744 11.5893 68.2416 13.0684H78.0834ZM91.3418 6.128C93.2381 6.128 94.7741 6.70637 95.9498 7.86311C97.1255 9.00089 97.7134 10.6507 97.7134 12.8124V22H95.1534V13.1822C95.1534 11.6273 94.7647 10.4421 93.9872 9.62666C93.2097 8.79229 92.1478 8.37511 90.8014 8.37511C89.4361 8.37511 88.3457 8.80178 87.5303 9.65511C86.7338 10.5084 86.3356 11.7505 86.3356 13.3813V22H83.7472V6.41244H86.3356V8.63111C86.8476 7.83466 87.5398 7.21837 88.4121 6.78222C89.3033 6.34607 90.2799 6.128 91.3418 6.128ZM107.705 12.0729C107.705 10.1387 108.141 8.40355 109.013 6.86755C109.885 5.31259 111.07 4.09896 112.569 3.22666C114.086 2.35437 115.764 1.91822 117.603 1.91822C119.765 1.91822 121.652 2.4397 123.264 3.48266C124.875 4.52563 126.051 6.00474 126.791 7.92H123.69C123.14 6.72533 122.344 5.80563 121.301 5.16089C120.277 4.51615 119.044 4.19378 117.603 4.19378C116.219 4.19378 114.977 4.51615 113.877 5.16089C112.777 5.80563 111.914 6.72533 111.289 7.92C110.663 9.0957 110.35 10.48 110.35 12.0729C110.35 13.6468 110.663 15.0311 111.289 16.2258C111.914 17.4015 112.777 18.3117 113.877 18.9564C114.977 19.6012 116.219 19.9236 117.603 19.9236C119.044 19.9236 120.277 19.6107 121.301 18.9849C122.344 18.3401 123.14 17.4204 123.69 16.2258H126.791C126.051 18.1221 124.875 19.5917 123.264 20.6347C121.652 21.6587 119.765 22.1707 117.603 22.1707C115.764 22.1707 114.086 21.744 112.569 20.8907C111.07 20.0184 109.885 18.8142 109.013 17.2782C108.141 15.7422 107.705 14.0071 107.705 12.0729ZM131.554 3.88089C131.061 3.88089 130.644 3.71022 130.303 3.36889C129.961 3.02755 129.791 2.61037 129.791 2.11733C129.791 1.62429 129.961 1.20711 130.303 0.865775C130.644 0.524442 131.061 0.353775 131.554 0.353775C132.028 0.353775 132.426 0.524442 132.749 0.865775C133.09 1.20711 133.261 1.62429 133.261 2.11733C133.261 2.61037 133.09 3.02755 132.749 3.36889C132.426 3.71022 132.028 3.88089 131.554 3.88089ZM132.806 6.41244V22H130.217V6.41244H132.806ZM139.948 8.54578V17.7333C139.948 18.4919 140.109 19.0323 140.431 19.3547C140.754 19.6581 141.313 19.8098 142.11 19.8098H144.015V22H141.683C140.242 22 139.161 21.6681 138.44 21.0044C137.72 20.3407 137.359 19.2504 137.359 17.7333V8.54578H135.34V6.41244H137.359V2.48711H139.948V6.41244H144.015V8.54578H139.948ZM160.151 6.41244L150.764 29.3387H148.09L151.162 21.8293L144.876 6.41244H147.749L152.641 19.0418L157.477 6.41244H160.151Z" fill="black"/>
</svg>
