<svg width="9" height="15" viewBox="0 0 9 15" fill="none" xmlns="http://www.w3.org/2000/svg">
<path d="M3.73858 14.4897V13.2577C2.69324 13.1403 1.86658 12.767 1.25858 12.1377C0.650578 11.5083 0.346578 10.7083 0.346578 9.73766H1.75458C1.75458 10.303 1.91991 10.8097 2.25058 11.2577C2.59191 11.695 3.08791 11.9777 3.73858 12.1057V7.76966C3.66391 7.74832 3.58391 7.72699 3.49858 7.70566C3.42391 7.67366 3.34924 7.64699 3.27458 7.62566C2.41058 7.32699 1.77058 6.95899 1.35458 6.52166C0.938578 6.07366 0.730578 5.49232 0.730578 4.77766C0.719911 3.94566 0.981245 3.25232 1.51458 2.69766C2.05858 2.14299 2.79991 1.82299 3.73858 1.73766V0.441656H4.84258V1.73766C5.73858 1.84432 6.45325 2.18032 6.98658 2.74566C7.51991 3.31099 7.79191 3.99899 7.80258 4.80966H6.39458C6.39458 4.41499 6.26658 4.03632 6.01058 3.67366C5.75458 3.30032 5.36525 3.04966 4.84258 2.92166V6.79366C4.92791 6.81499 5.01324 6.84166 5.09858 6.87366C5.18391 6.90566 5.27458 6.93232 5.37058 6.95366C5.90391 7.14566 6.38391 7.36966 6.81058 7.62566C7.23725 7.88166 7.56791 8.21232 7.80258 8.61766C8.04791 9.02299 8.17058 9.54032 8.17058 10.1697C8.17058 10.671 8.04791 11.1457 7.80258 11.5937C7.55725 12.0417 7.18391 12.4203 6.68258 12.7297C6.19191 13.039 5.57858 13.2203 4.84258 13.2737V14.4897H3.73858ZM2.12258 4.64966C2.12258 5.14032 2.26658 5.51366 2.55458 5.76966C2.84258 6.01499 3.23724 6.22832 3.73858 6.40966V2.88966C3.25858 2.96432 2.86924 3.15632 2.57058 3.46566C2.27191 3.76432 2.12258 4.15899 2.12258 4.64966ZM6.77858 10.2497C6.77858 9.63099 6.59725 9.17232 6.23458 8.87366C5.87191 8.57499 5.40791 8.32966 4.84258 8.13766V12.1377C5.46125 12.063 5.93591 11.8497 6.26658 11.4977C6.60791 11.1457 6.77858 10.7297 6.77858 10.2497Z" fill="#753FF6"/>
</svg>
