<svg width="44" height="44" viewBox="0 0 44 44" fill="none" xmlns="http://www.w3.org/2000/svg">
<path d="M37.4901 37.4907H30.9707V27.2808C30.9707 24.8462 30.9272 21.712 27.5799 21.712C24.1844 21.712 23.6648 24.3648 23.6648 27.1036V37.49H17.1456V16.4944H23.404V19.3637H23.4917C24.118 18.2928 25.0231 17.4118 26.1105 16.8145C27.198 16.2172 28.427 15.9261 29.6668 15.9721C36.2746 15.9721 37.4928 20.3185 37.4928 25.9728L37.4901 37.4907ZM9.78931 13.6246C7.69983 13.625 6.00566 11.9313 6.00531 9.84184C6.00497 7.75236 7.69845 6.05819 9.78794 6.05784C11.8774 6.05733 13.5716 7.75098 13.5719 9.84047C13.5721 10.8439 13.1737 11.8063 12.4643 12.5159C11.755 13.2256 10.7927 13.6244 9.78931 13.6246ZM13.0491 37.4909H6.52283V16.4944H13.0489V37.4907L13.0491 37.4909ZM40.7402 0.00320236H3.24689C1.47486 -0.0167351 0.0216563 1.40278 0 3.17481V40.8245C0.0209688 42.5974 1.474 44.0183 3.24672 43.9998H40.7402C42.5167 44.0218 43.9754 42.6009 44 40.8245V3.17189C43.9747 1.39642 42.5159 -0.0229226 40.7402 0.000280482" fill="white"/>
</svg>
