<svg width="208" height="34" viewBox="0 0 208 34" fill="none" xmlns="http://www.w3.org/2000/svg">
<path d="M63.7047 11.92C63.1548 10.7633 62.3584 9.872 61.3154 9.24622C60.2724 8.60148 59.0588 8.27911 57.6745 8.27911C56.2902 8.27911 55.0387 8.60148 53.9198 9.24622C52.82 9.872 51.9477 10.7822 51.3029 11.9769C50.6772 13.1526 50.3643 14.5179 50.3643 16.0729C50.3643 17.6279 50.6772 18.9932 51.3029 20.1689C51.9477 21.3446 52.82 22.2548 53.9198 22.8996C55.0387 23.5253 56.2902 23.8382 57.6745 23.8382C59.6087 23.8382 61.2016 23.2599 62.4532 22.1031C63.7047 20.9464 64.4348 19.3819 64.6434 17.4098H56.7358V15.3049H67.4025V17.296C67.2508 18.9268 66.7388 20.4249 65.8665 21.7902C64.9942 23.1366 63.8469 24.208 62.4247 25.0044C61.0025 25.7819 59.4191 26.1707 57.6745 26.1707C55.8351 26.1707 54.1569 25.744 52.6398 24.8907C51.1228 24.0184 49.9186 22.8142 49.0274 21.2782C48.1551 19.7422 47.7189 18.0071 47.7189 16.0729C47.7189 14.1387 48.1551 12.4036 49.0274 10.8676C49.9186 9.31259 51.1228 8.10844 52.6398 7.25511C54.1569 6.38281 55.8351 5.94666 57.6745 5.94666C59.7794 5.94666 61.6378 6.46815 63.2496 7.51111C64.8804 8.55407 66.0656 10.0237 66.8052 11.92H63.7047ZM77.1965 26.256C75.7364 26.256 74.4089 25.9241 73.2143 25.2604C72.0386 24.5967 71.1094 23.6581 70.4267 22.4444C69.763 21.2119 69.4312 19.7896 69.4312 18.1778C69.4312 16.5849 69.7725 15.1816 70.4552 13.968C71.1568 12.7354 72.1049 11.7967 73.2996 11.152C74.4943 10.4883 75.8312 10.1564 77.3103 10.1564C78.7894 10.1564 80.1263 10.4883 81.3209 11.152C82.5156 11.7967 83.4543 12.7259 84.1369 13.9396C84.8386 15.1532 85.1894 16.5659 85.1894 18.1778C85.1894 19.7896 84.8291 21.2119 84.1085 22.4444C83.4069 23.6581 82.4492 24.5967 81.2356 25.2604C80.022 25.9241 78.6756 26.256 77.1965 26.256ZM77.1965 23.9804C78.1257 23.9804 78.998 23.7624 79.8134 23.3262C80.6288 22.8901 81.283 22.2359 81.7761 21.3636C82.2881 20.4913 82.5441 19.4293 82.5441 18.1778C82.5441 16.9262 82.2975 15.8643 81.8045 14.992C81.3115 14.1197 80.6667 13.475 79.8703 13.0578C79.0738 12.6216 78.211 12.4036 77.2818 12.4036C76.3337 12.4036 75.4614 12.6216 74.6649 13.0578C73.8875 13.475 73.2617 14.1197 72.7876 14.992C72.3135 15.8643 72.0765 16.9262 72.0765 18.1778C72.0765 19.4483 72.3041 20.5197 72.7592 21.392C73.2332 22.2643 73.859 22.9185 74.6365 23.3547C75.414 23.7719 76.2673 23.9804 77.1965 23.9804ZM90.7545 4.95111V26H88.1661V4.95111H90.7545ZM93.7723 18.1493C93.7723 16.5564 94.0947 15.1627 94.7394 13.968C95.3841 12.7544 96.2659 11.8157 97.3847 11.152C98.5225 10.4883 99.793 10.1564 101.196 10.1564C102.41 10.1564 103.538 10.4409 104.581 11.0098C105.624 11.5597 106.421 12.2898 106.971 13.2V4.95111H109.587V26H106.971V23.0702C106.459 23.9994 105.7 24.7674 104.695 25.3742C103.69 25.9621 102.514 26.256 101.168 26.256C99.7835 26.256 98.5225 25.9147 97.3847 25.232C96.2659 24.5493 95.3841 23.5917 94.7394 22.3591C94.0947 21.1265 93.7723 19.7233 93.7723 18.1493ZM106.971 18.1778C106.971 17.0021 106.733 15.9781 106.259 15.1058C105.785 14.2335 105.141 13.5698 104.325 13.1147C103.529 12.6406 102.647 12.4036 101.68 12.4036C100.713 12.4036 99.831 12.6311 99.0345 13.0862C98.2381 13.5413 97.6028 14.205 97.1287 15.0773C96.6547 15.9496 96.4176 16.9736 96.4176 18.1493C96.4176 19.344 96.6547 20.387 97.1287 21.2782C97.6028 22.1505 98.2381 22.8237 99.0345 23.2978C99.831 23.7529 100.713 23.9804 101.68 23.9804C102.647 23.9804 103.529 23.7529 104.325 23.2978C105.141 22.8237 105.785 22.1505 106.259 21.2782C106.733 20.387 106.971 19.3535 106.971 18.1778ZM127.757 17.6089C127.757 18.1019 127.729 18.6234 127.672 19.1733H115.213C115.308 20.7093 115.829 21.9135 116.778 22.7858C117.745 23.6391 118.911 24.0658 120.276 24.0658C121.395 24.0658 122.324 23.8098 123.064 23.2978C123.822 22.7668 124.353 22.0652 124.657 21.1929H127.444C127.027 22.691 126.193 23.9141 124.941 24.8622C123.69 25.7914 122.135 26.256 120.276 26.256C118.797 26.256 117.47 25.9241 116.294 25.2604C115.137 24.5967 114.227 23.6581 113.563 22.4444C112.9 21.2119 112.568 19.7896 112.568 18.1778C112.568 16.5659 112.89 15.1532 113.535 13.9396C114.18 12.7259 115.08 11.7967 116.237 11.152C117.413 10.4883 118.759 10.1564 120.276 10.1564C121.755 10.1564 123.064 10.4788 124.202 11.1236C125.339 11.7683 126.212 12.6596 126.819 13.7973C127.444 14.9161 127.757 16.1867 127.757 17.6089ZM125.083 17.0684C125.083 16.0824 124.865 15.2385 124.429 14.5369C123.993 13.8163 123.396 13.2759 122.637 12.9156C121.898 12.5363 121.073 12.3467 120.163 12.3467C118.854 12.3467 117.735 12.7639 116.806 13.5982C115.896 14.4326 115.374 15.5893 115.242 17.0684H125.083ZM138.342 10.128C140.238 10.128 141.774 10.7064 142.95 11.8631C144.126 13.0009 144.713 14.6507 144.713 16.8124V26H142.153V17.1822C142.153 15.6273 141.765 14.4421 140.987 13.6267C140.21 12.7923 139.148 12.3751 137.801 12.3751C136.436 12.3751 135.346 12.8018 134.53 13.6551C133.734 14.5084 133.336 15.7505 133.336 17.3813V26H130.747V10.4124H133.336V12.6311C133.848 11.8347 134.54 11.2184 135.412 10.7822C136.303 10.3461 137.28 10.128 138.342 10.128ZM154.705 16.0729C154.705 14.1387 155.141 12.4036 156.013 10.8676C156.885 9.31259 158.07 8.09896 159.569 7.22666C161.086 6.35437 162.764 5.91822 164.603 5.91822C166.765 5.91822 168.652 6.4397 170.264 7.48266C171.875 8.52563 173.051 10.0047 173.791 11.92H170.69C170.14 10.7253 169.344 9.80563 168.301 9.16089C167.277 8.51615 166.044 8.19378 164.603 8.19378C163.219 8.19378 161.977 8.51615 160.877 9.16089C159.777 9.80563 158.914 10.7253 158.289 11.92C157.663 13.0957 157.35 14.48 157.35 16.0729C157.35 17.6468 157.663 19.0311 158.289 20.2258C158.914 21.4015 159.777 22.3117 160.877 22.9564C161.977 23.6012 163.219 23.9236 164.603 23.9236C166.044 23.9236 167.277 23.6107 168.301 22.9849C169.344 22.3401 170.14 21.4204 170.69 20.2258H173.791C173.051 22.1221 171.875 23.5917 170.264 24.6347C168.652 25.6587 166.765 26.1707 164.603 26.1707C162.764 26.1707 161.086 25.744 159.569 24.8907C158.07 24.0184 156.885 22.8142 156.013 21.2782C155.141 19.7422 154.705 18.0071 154.705 16.0729ZM178.554 7.88089C178.061 7.88089 177.644 7.71022 177.303 7.36889C176.961 7.02755 176.791 6.61037 176.791 6.11733C176.791 5.62429 176.961 5.20711 177.303 4.86578C177.644 4.52444 178.061 4.35378 178.554 4.35378C179.028 4.35378 179.426 4.52444 179.749 4.86578C180.09 5.20711 180.261 5.62429 180.261 6.11733C180.261 6.61037 180.09 7.02755 179.749 7.36889C179.426 7.71022 179.028 7.88089 178.554 7.88089ZM179.806 10.4124V26H177.217V10.4124H179.806ZM186.948 12.5458V21.7333C186.948 22.4919 187.109 23.0323 187.431 23.3547C187.754 23.6581 188.313 23.8098 189.11 23.8098H191.015V26H188.683C187.242 26 186.161 25.6681 185.44 25.0044C184.72 24.3407 184.359 23.2504 184.359 21.7333V12.5458H182.34V10.4124H184.359V6.48711H186.948V10.4124H191.015V12.5458H186.948ZM207.151 10.4124L197.764 33.3387H195.09L198.162 25.8293L191.876 10.4124H194.749L199.641 23.0418L204.477 10.4124H207.151Z" fill="black"/>
<path fill-rule="evenodd" clip-rule="evenodd" d="M25.8321 2.96289H8.58307e-06L10.8767 9.63504H36.7087L25.8321 2.96289ZM10.8767 9.63505V25.4814L0 18.8093V2.96289L10.8767 9.63505Z" fill="#CCCCCC"/>
<path fill-rule="evenodd" clip-rule="evenodd" d="M10.8766 25.4814L36.7087 25.4814L25.8321 18.8093L-1.52588e-05 18.8093L10.8766 25.4814ZM25.8321 18.8093L25.8321 2.96292L36.7087 9.63508V25.4814L25.8321 18.8093Z" fill="black"/>
</svg>
