<svg width="50" height="50" viewBox="0 0 50 50" fill="none" xmlns="http://www.w3.org/2000/svg">
<path fill-rule="evenodd" clip-rule="evenodd" d="M16.6667 6.25C17.7717 6.25 18.8315 6.68899 19.6129 7.47039C20.3943 8.25179 20.8333 9.3116 20.8333 10.4167V16.6667H33.3333C34.4384 16.6667 35.4982 17.1057 36.2796 17.8871C37.061 18.6685 37.5 19.7283 37.5 20.8333C37.5 21.9384 37.061 22.9982 36.2796 23.7796C35.4982 24.561 34.4384 25 33.3333 25H20.8333V29.1667C20.8333 30.8243 21.4918 32.414 22.6639 33.5861C23.836 34.7582 25.4257 35.4167 27.0833 35.4167H33.3333C34.4384 35.4167 35.4982 35.8557 36.2796 36.6371C37.061 37.4185 37.5 38.4783 37.5 39.5833C37.5 40.6884 37.061 41.7482 36.2796 42.5296C35.4982 43.311 34.4384 43.75 33.3333 43.75H27.0833C23.2156 43.75 19.5063 42.2135 16.7714 39.4786C14.0365 36.7437 12.5 33.0344 12.5 29.1667V10.4167C12.5 9.3116 12.939 8.25179 13.7204 7.47039C14.5018 6.68899 15.5616 6.25 16.6667 6.25Z" fill="white"/>
</svg>
